# xmcd CD database file
#
# Track frame offsets:
#	150
#	17272
#	30127
#	45517
#	59062
#	73850
#	88707
#	104600
#	120177
#	142450
#	158320
#	172975
#	203042
#	218530
#
# Disc length: 3105 seconds
#
# Revision: 0
# Processed by: cddbd v1.5.1PL0 Copyright (c) Steve Scherf et al.
# Submitted via: CDex 1.51
#
DISCID=b20c1f0e
DTITLE=DIE DEUTSCHEN HITS 2000 - POWER PARTY HITS 2000-DEUTSCHE
DYEAR=2000
DGENRE=Country
TTITLE0=1.MICHAEL MICHELOFF-HIMBEEREIS ZUM FRUHSTUCK
TTITLE1=2.RONNY BECKER-ALLES DREHT SIH
TTITLE2=3.DIE WILDEN BUBEN&DJ CORONA-HERZILEIN
TTITLE3=4.CHRIS BLOHM-ICH VERMISS DICH(WIE DIE HOLLE)
TTITLE4=5.SIGGI&WOLFGANG-VERDAMMT NOCHMAL
TTITLE5=6.JIM CLIF-SCWEINEGEILE,STEILE PARTY
TTITLE6=7.DIE LOLLIIES-ENGEL AUF ERDEN
TTITLE7=8.DARJA-POPOPO
TTITLE8=9.THEKEN MIX2(KURZE VERS.)
TTITLE9=10.RONNYBECKER-DU WIRST KEINE TRANEN SEH'N
TTITLE10=11.JIM CLIF-WIR SIND HIER NICHT IM KARNEVAL
TTITLE11=12.DER LOLIES-MEGAMIX
TTITLE12=13.MICKIE KRAUSE-ANITA
TTITLE13=GEIER STURZFLUG-AB MORGEN WIRD GESPART
EXTD=YEAR: 2000
EXTT0=
EXTT1=
EXTT2=
EXTT3=
EXTT4=
EXTT5=
EXTT6=
EXTT7=
EXTT8=
EXTT9=
EXTT10=
EXTT11=
EXTT12=
EXTT13=
PLAYORDER=
